<svg width="904" height="816" viewBox="0 0 904 816" fill="none" xmlns="http://www.w3.org/2000/svg">
<g filter="url(#filter0_d)">
<path d="M270.626 216.374C156.859 263.743 177.684 346.594 202.318 382.098C209.571 386.049 216.195 402.322 184.672 435.812C145.269 477.675 287.901 409.651 285.234 469.857C283.1 518.021 204.059 556.992 164.805 570.457C89.868 668.936 233.748 634.486 318.261 574.296C402.775 514.106 499.852 538.691 528.198 642.806C556.544 746.922 862.268 440.525 721.211 431.524C580.154 422.522 647.229 274.586 714.429 141.144C781.628 7.70222 425.077 40.2395 486.458 126.509C547.839 212.779 412.835 157.163 270.626 216.374Z" fill="#C54444"/>
<path d="M270.626 216.374C156.859 263.743 177.684 346.594 202.318 382.098C209.571 386.049 216.195 402.322 184.672 435.812C145.269 477.675 287.901 409.651 285.234 469.857C283.1 518.021 204.059 556.992 164.805 570.457C89.868 668.936 233.748 634.486 318.261 574.296C402.775 514.106 499.852 538.691 528.198 642.806C556.544 746.922 862.268 440.525 721.211 431.524C580.154 422.522 647.229 274.586 714.429 141.144C781.628 7.70222 425.077 40.2395 486.458 126.509C547.839 212.779 412.835 157.163 270.626 216.374Z" stroke="black"/>
</g>
<defs>
<filter id="filter0_d" x="0" y="0" width="903.783" height="815.959" filterUnits="userSpaceOnUse" color-interpolation-filters="sRGB">
<feFlood flood-opacity="0" result="BackgroundImageFix"/>
<feColorMatrix in="SourceAlpha" type="matrix" values="0 0 0 0 0 0 0 0 0 0 0 0 0 0 0 0 0 0 127 0"/>
<feOffset dy="4"/>
<feGaussianBlur stdDeviation="2"/>
<feColorMatrix type="matrix" values="0 0 0 0 0 0 0 0 0 0 0 0 0 0 0 0 0 0 0.25 0"/>
<feBlend mode="normal" in2="BackgroundImageFix" result="effect1_dropShadow"/>
<feBlend mode="normal" in="SourceGraphic" in2="effect1_dropShadow" result="shape"/>
</filter>
</defs>
</svg>
